<mxfile host="app.diagrams.net" modified="2023-08-14T14:47:21.267Z" agent="Mozilla/5.0 (Windows NT 10.0; Win64; x64) AppleWebKit/537.36 (KHTML, like Gecko) Chrome/115.0.0.0 Safari/537.36" etag="no7wRbRIb4W5W4ABUy8B" version="21.6.8" type="device">
  <diagram name="PÃ¡gina-1" id="BsoZeClsR0U82KouOqyx">
    <mxGraphModel dx="2049" dy="2266" grid="1" gridSize="10" guides="1" tooltips="1" connect="1" arrows="1" fold="1" page="1" pageScale="1" pageWidth="827" pageHeight="1169" math="0" shadow="0">
      <root>
        <mxCell id="0" />
        <mxCell id="1" parent="0" />
        <mxCell id="GK6MLAFIBo-bt2Q_n8N4-12" value="tim" style="group;fontFamily=Georgia;" parent="1" vertex="1" connectable="0">
          <mxGeometry x="40" y="200" width="760" height="40" as="geometry" />
        </mxCell>
        <mxCell id="GK6MLAFIBo-bt2Q_n8N4-5" value="World Creation" style="rounded=0;whiteSpace=wrap;html=1;fontFamily=Georgia;" parent="GK6MLAFIBo-bt2Q_n8N4-12" vertex="1">
          <mxGeometry width="120" height="40" as="geometry" />
        </mxCell>
        <mxCell id="GK6MLAFIBo-bt2Q_n8N4-6" value="Character Creation" style="rounded=0;whiteSpace=wrap;html=1;fontFamily=Georgia;" parent="GK6MLAFIBo-bt2Q_n8N4-12" vertex="1">
          <mxGeometry x="160" width="120" height="40" as="geometry" />
        </mxCell>
        <mxCell id="GK6MLAFIBo-bt2Q_n8N4-9" value="Battle Manager" style="rounded=0;whiteSpace=wrap;html=1;fontFamily=Georgia;" parent="GK6MLAFIBo-bt2Q_n8N4-12" vertex="1">
          <mxGeometry x="480" width="120" height="40" as="geometry" />
        </mxCell>
        <mxCell id="GK6MLAFIBo-bt2Q_n8N4-10" value="Campaign Planner" style="rounded=0;whiteSpace=wrap;html=1;fontFamily=Georgia;" parent="GK6MLAFIBo-bt2Q_n8N4-12" vertex="1">
          <mxGeometry x="320" width="120" height="40" as="geometry" />
        </mxCell>
        <mxCell id="GK6MLAFIBo-bt2Q_n8N4-11" value="Rules" style="rounded=0;whiteSpace=wrap;html=1;fontFamily=Georgia;" parent="GK6MLAFIBo-bt2Q_n8N4-12" vertex="1">
          <mxGeometry x="640" width="120" height="40" as="geometry" />
        </mxCell>
        <mxCell id="GK6MLAFIBo-bt2Q_n8N4-14" style="edgeStyle=orthogonalEdgeStyle;rounded=0;orthogonalLoop=1;jettySize=auto;html=1;exitX=0.5;exitY=1;exitDx=0;exitDy=0;startArrow=classic;startFill=1;endArrow=classic;endFill=1;fontFamily=Georgia;" parent="1" source="GK6MLAFIBo-bt2Q_n8N4-13" target="GK6MLAFIBo-bt2Q_n8N4-10" edge="1">
          <mxGeometry relative="1" as="geometry" />
        </mxCell>
        <mxCell id="GK6MLAFIBo-bt2Q_n8N4-15" style="edgeStyle=orthogonalEdgeStyle;rounded=0;orthogonalLoop=1;jettySize=auto;html=1;exitX=0.5;exitY=1;exitDx=0;exitDy=0;startArrow=classic;startFill=1;endArrow=classic;endFill=1;fontFamily=Georgia;" parent="1" source="GK6MLAFIBo-bt2Q_n8N4-13" target="GK6MLAFIBo-bt2Q_n8N4-9" edge="1">
          <mxGeometry relative="1" as="geometry" />
        </mxCell>
        <mxCell id="GK6MLAFIBo-bt2Q_n8N4-16" style="edgeStyle=orthogonalEdgeStyle;rounded=0;orthogonalLoop=1;jettySize=auto;html=1;exitX=0.5;exitY=1;exitDx=0;exitDy=0;entryX=0.5;entryY=0;entryDx=0;entryDy=0;startArrow=classic;startFill=1;endArrow=classic;endFill=1;fontFamily=Georgia;" parent="1" source="GK6MLAFIBo-bt2Q_n8N4-13" target="GK6MLAFIBo-bt2Q_n8N4-11" edge="1">
          <mxGeometry relative="1" as="geometry" />
        </mxCell>
        <mxCell id="GK6MLAFIBo-bt2Q_n8N4-17" style="edgeStyle=orthogonalEdgeStyle;rounded=0;orthogonalLoop=1;jettySize=auto;html=1;exitX=0.5;exitY=1;exitDx=0;exitDy=0;startArrow=classic;startFill=1;endArrow=classic;endFill=1;fontFamily=Georgia;" parent="1" source="GK6MLAFIBo-bt2Q_n8N4-13" target="GK6MLAFIBo-bt2Q_n8N4-6" edge="1">
          <mxGeometry relative="1" as="geometry" />
        </mxCell>
        <mxCell id="GK6MLAFIBo-bt2Q_n8N4-18" style="edgeStyle=orthogonalEdgeStyle;rounded=0;orthogonalLoop=1;jettySize=auto;html=1;exitX=0.5;exitY=1;exitDx=0;exitDy=0;entryX=0.5;entryY=0;entryDx=0;entryDy=0;startArrow=classic;startFill=1;endArrow=classic;endFill=1;fontFamily=Georgia;" parent="1" source="GK6MLAFIBo-bt2Q_n8N4-13" target="GK6MLAFIBo-bt2Q_n8N4-5" edge="1">
          <mxGeometry relative="1" as="geometry" />
        </mxCell>
        <mxCell id="GK6MLAFIBo-bt2Q_n8N4-23" style="edgeStyle=orthogonalEdgeStyle;rounded=0;orthogonalLoop=1;jettySize=auto;html=1;exitX=1;exitY=0.5;exitDx=0;exitDy=0;entryX=0;entryY=0.5;entryDx=0;entryDy=0;startArrow=classic;startFill=1;endArrow=classic;endFill=1;fontFamily=Georgia;" parent="1" source="GK6MLAFIBo-bt2Q_n8N4-13" target="GK6MLAFIBo-bt2Q_n8N4-20" edge="1">
          <mxGeometry relative="1" as="geometry" />
        </mxCell>
        <mxCell id="GK6MLAFIBo-bt2Q_n8N4-13" value="Home Page" style="rounded=0;whiteSpace=wrap;html=1;fontFamily=Georgia;" parent="1" vertex="1">
          <mxGeometry x="360" y="80" width="120" height="40" as="geometry" />
        </mxCell>
        <mxCell id="GK6MLAFIBo-bt2Q_n8N4-20" value="Site Documentation" style="html=1;whiteSpace=wrap;fontFamily=Georgia;" parent="1" vertex="1">
          <mxGeometry x="560" y="80" width="160" height="40" as="geometry" />
        </mxCell>
        <mxCell id="GK6MLAFIBo-bt2Q_n8N4-25" value="" style="shape=umlActor;verticalLabelPosition=bottom;verticalAlign=top;html=1;fontFamily=Georgia;" parent="1" vertex="1">
          <mxGeometry x="625" y="20" width="30" height="60" as="geometry" />
        </mxCell>
        <mxCell id="GK6MLAFIBo-bt2Q_n8N4-26" value="You are Here" style="text;html=1;strokeColor=none;fillColor=none;align=center;verticalAlign=middle;whiteSpace=wrap;rounded=0;fontFamily=Georgia;" parent="1" vertex="1">
          <mxGeometry x="590" y="-20" width="100" height="30" as="geometry" />
        </mxCell>
        <mxCell id="GK6MLAFIBo-bt2Q_n8N4-27" value="&lt;h1&gt;&lt;span style=&quot;background-color: initial; font-size: 12px; font-weight: normal;&quot;&gt;An MkDocs minisite with the basic rules&lt;/span&gt;&lt;br&gt;&lt;/h1&gt;" style="text;html=1;strokeColor=none;fillColor=none;spacing=5;spacingTop=-20;whiteSpace=wrap;overflow=hidden;rounded=0;verticalAlign=middle;fontFamily=Georgia;" parent="1" vertex="1">
          <mxGeometry x="850" y="200" width="220" height="40" as="geometry" />
        </mxCell>
        <mxCell id="GK6MLAFIBo-bt2Q_n8N4-31" style="edgeStyle=orthogonalEdgeStyle;rounded=0;orthogonalLoop=1;jettySize=auto;html=1;exitX=0.1;exitY=0.5;exitDx=0;exitDy=0;exitPerimeter=0;entryX=1;entryY=0.5;entryDx=0;entryDy=0;endArrow=none;endFill=0;fontFamily=Georgia;" parent="1" source="GK6MLAFIBo-bt2Q_n8N4-30" target="GK6MLAFIBo-bt2Q_n8N4-11" edge="1">
          <mxGeometry relative="1" as="geometry" />
        </mxCell>
        <mxCell id="GK6MLAFIBo-bt2Q_n8N4-30" value="" style="shape=curlyBracket;whiteSpace=wrap;html=1;rounded=1;labelPosition=left;verticalLabelPosition=middle;align=right;verticalAlign=middle;fontFamily=Georgia;" parent="1" vertex="1">
          <mxGeometry x="827" y="190" width="20" height="60" as="geometry" />
        </mxCell>
        <mxCell id="9vdvpnOu38ZFY94GTGz4-2" value="&lt;div style=&quot;text-align: start; overflow-wrap: break-word;&quot;&gt;Personality&lt;/div&gt;" style="shape=step;perimeter=stepPerimeter;whiteSpace=wrap;html=1;fixedSize=1;fontFamily=Georgia;" parent="1" vertex="1">
          <mxGeometry x="220" y="560" width="150" height="80" as="geometry" />
        </mxCell>
        <mxCell id="9vdvpnOu38ZFY94GTGz4-3" value="&lt;div style=&quot;text-align: start; overflow-wrap: break-word;&quot;&gt;&lt;pre style=&quot;overflow-wrap: break-word;&quot;&gt;Religion/Spirituality&lt;/pre&gt;&lt;/div&gt;" style="shape=step;perimeter=stepPerimeter;whiteSpace=wrap;html=1;fixedSize=1;fontFamily=Georgia;fontColor=#000000;" parent="1" vertex="1">
          <mxGeometry x="370" y="560" width="210" height="80" as="geometry" />
        </mxCell>
        <mxCell id="9vdvpnOu38ZFY94GTGz4-4" value="&lt;div style=&quot;text-align: start; overflow-wrap: break-word;&quot;&gt;&lt;pre style=&quot;overflow-wrap: break-word;&quot;&gt;&lt;pre style=&quot;overflow-wrap: break-word;&quot;&gt;Background&lt;/pre&gt;&lt;/pre&gt;&lt;/div&gt;" style="shape=step;perimeter=stepPerimeter;whiteSpace=wrap;html=1;fixedSize=1;fontFamily=Georgia;fontColor=#000000;" parent="1" vertex="1">
          <mxGeometry x="580" y="560" width="210" height="80" as="geometry" />
        </mxCell>
      </root>
    </mxGraphModel>
  </diagram>
</mxfile>
